<mxfile host="app.diagrams.net" modified="2024-03-09T14:45:49.481Z" agent="Mozilla/5.0 (Macintosh; Intel Mac OS X 10_15_7) AppleWebKit/605.1.15 (KHTML, like Gecko) Version/17.4 Safari/605.1.15" etag="PWbZ_8XQoCate4aBc0zl" version="24.0.2" type="device">
  <diagram name="Page-1" id="fDzdxHZvuhFJxoay-ObD">
    <mxGraphModel dx="1814" dy="1488" grid="1" gridSize="10" guides="1" tooltips="1" connect="1" arrows="1" fold="1" page="1" pageScale="1" pageWidth="850" pageHeight="1100" math="0" shadow="0">
      <root>
        <mxCell id="0" />
        <mxCell id="1" parent="0" />
        <mxCell id="NoLDuvIoNGPkwHfxKqSU-2" value="&lt;font style=&quot;font-size: 10px; font-weight: normal;&quot;&gt;Azure: US East &lt;br&gt;(Region)&lt;/font&gt;" style="swimlane;whiteSpace=wrap;html=1;fillColor=#99CCFF;startSize=30;" parent="1" vertex="1">
          <mxGeometry x="40" y="30" width="1370" height="1150" as="geometry" />
        </mxCell>
        <mxCell id="NoLDuvIoNGPkwHfxKqSU-4" value="&lt;span style=&quot;text-align: start;&quot;&gt;&lt;span style=&quot;line-height: 15.693334px; font-family: Calibri, sans-serif; font-weight: 400;&quot;&gt;Resource Group&lt;/span&gt;&lt;/span&gt;" style="swimlane;whiteSpace=wrap;html=1;startSize=30;fillColor=#3399FF;" parent="NoLDuvIoNGPkwHfxKqSU-2" vertex="1">
          <mxGeometry x="10" y="40" width="1340" height="1090" as="geometry" />
        </mxCell>
        <mxCell id="-4cA7_axbYcHQA_eD2gU-34" style="edgeStyle=orthogonalEdgeStyle;rounded=0;orthogonalLoop=1;jettySize=auto;html=1;endArrow=none;endFill=0;strokeColor=#99CCFF;strokeWidth=4;entryX=0.5;entryY=1;entryDx=0;entryDy=0;" edge="1" parent="NoLDuvIoNGPkwHfxKqSU-4" source="-4cA7_axbYcHQA_eD2gU-33" target="-4cA7_axbYcHQA_eD2gU-96">
          <mxGeometry relative="1" as="geometry">
            <mxPoint x="416" y="680" as="targetPoint" />
          </mxGeometry>
        </mxCell>
        <mxCell id="aUUkp6z2Ffg6O78OrMZu-24" value="&lt;div style=&quot;&quot;&gt;&lt;span style=&quot;font-weight: 400;&quot;&gt;Private Endpoint Spoke&lt;br&gt;Virtual Network&lt;br&gt;&lt;/span&gt;&lt;/div&gt;" style="swimlane;whiteSpace=wrap;html=1;startSize=30;fillColor=#dae8fc;strokeColor=#6c8ebf;align=center;" parent="NoLDuvIoNGPkwHfxKqSU-4" vertex="1">
          <mxGeometry x="490" y="420" width="670" height="320" as="geometry" />
        </mxCell>
        <mxCell id="-4cA7_axbYcHQA_eD2gU-35" value="&lt;div style=&quot;&quot;&gt;&lt;span style=&quot;font-weight: 400;&quot;&gt;Private Endpoint&lt;br&gt;Subnet&lt;br&gt;AzureSQL&lt;/span&gt;&lt;/div&gt;" style="swimlane;whiteSpace=wrap;html=1;startSize=48;fillColor=#dae8fc;strokeColor=#6c8ebf;align=center;" vertex="1" parent="aUUkp6z2Ffg6O78OrMZu-24">
          <mxGeometry x="73.75" y="50" width="112.5" height="250" as="geometry" />
        </mxCell>
        <mxCell id="-4cA7_axbYcHQA_eD2gU-49" value="Network Security&lt;br&gt;Group" style="image;aspect=fixed;html=1;points=[];align=center;fontSize=12;image=img/lib/azure2/networking/Network_Security_Groups.svg;" vertex="1" parent="-4cA7_axbYcHQA_eD2gU-35">
          <mxGeometry x="37.710000000000036" y="70" width="37.08" height="45" as="geometry" />
        </mxCell>
        <mxCell id="-4cA7_axbYcHQA_eD2gU-36" value="Database&lt;br&gt;Private Endpoint" style="image;aspect=fixed;html=1;points=[];align=center;fontSize=12;image=img/lib/azure2/other/Private_Endpoints.svg;labelBackgroundColor=#FFFFFF;" vertex="1" parent="-4cA7_axbYcHQA_eD2gU-35">
          <mxGeometry x="32.25" y="160.00000000000003" width="48" height="45.66" as="geometry" />
        </mxCell>
        <mxCell id="-4cA7_axbYcHQA_eD2gU-73" value="&lt;div style=&quot;&quot;&gt;&lt;span style=&quot;font-weight: 400;&quot;&gt;Private Endpoint&lt;br&gt;Subnet&lt;br&gt;Redis&lt;/span&gt;&lt;/div&gt;" style="swimlane;whiteSpace=wrap;html=1;startSize=48;fillColor=#dae8fc;strokeColor=#6c8ebf;align=center;" vertex="1" parent="aUUkp6z2Ffg6O78OrMZu-24">
          <mxGeometry x="300" y="50" width="112.5" height="250" as="geometry" />
        </mxCell>
        <mxCell id="-4cA7_axbYcHQA_eD2gU-75" value="Network Security&lt;br&gt;Group" style="image;aspect=fixed;html=1;points=[];align=center;fontSize=12;image=img/lib/azure2/networking/Network_Security_Groups.svg;" vertex="1" parent="-4cA7_axbYcHQA_eD2gU-73">
          <mxGeometry x="37.710000000000036" y="70" width="37.08" height="45" as="geometry" />
        </mxCell>
        <mxCell id="-4cA7_axbYcHQA_eD2gU-74" value="&lt;span style=&quot;background-color: rgb(255, 255, 255);&quot;&gt;Redis Cache&lt;br&gt;Private Endpoint&lt;/span&gt;" style="image;aspect=fixed;html=1;points=[];align=center;fontSize=12;image=img/lib/azure2/other/Private_Endpoints.svg;labelBackgroundColor=#FFFFFF;" vertex="1" parent="-4cA7_axbYcHQA_eD2gU-73">
          <mxGeometry x="32.25" y="160.00000000000003" width="48" height="45.66" as="geometry" />
        </mxCell>
        <mxCell id="-4cA7_axbYcHQA_eD2gU-87" style="edgeStyle=orthogonalEdgeStyle;rounded=0;orthogonalLoop=1;jettySize=auto;html=1;strokeWidth=2;curved=1;startArrow=classic;startFill=1;dashed=1;exitX=1.015;exitY=0.475;exitDx=0;exitDy=0;exitPerimeter=0;strokeColor=#CC0066;" edge="1" parent="aUUkp6z2Ffg6O78OrMZu-24">
          <mxGeometry relative="1" as="geometry">
            <mxPoint x="435.89999999999986" y="-219.98" as="sourcePoint" />
            <mxPoint x="519" y="171.51999999999998" as="targetPoint" />
            <Array as="points">
              <mxPoint x="499" y="-220.48" />
              <mxPoint x="499" y="-188.48" />
              <mxPoint x="460" y="-188.48" />
              <mxPoint x="460" y="171.51999999999998" />
            </Array>
          </mxGeometry>
        </mxCell>
        <mxCell id="-4cA7_axbYcHQA_eD2gU-95" value="Storage Traffic" style="edgeLabel;html=1;align=center;verticalAlign=middle;resizable=0;points=[];" vertex="1" connectable="0" parent="-4cA7_axbYcHQA_eD2gU-87">
          <mxGeometry x="-0.0082" y="-3" relative="1" as="geometry">
            <mxPoint y="8" as="offset" />
          </mxGeometry>
        </mxCell>
        <mxCell id="-4cA7_axbYcHQA_eD2gU-38" value="&lt;div style=&quot;&quot;&gt;&lt;span style=&quot;font-weight: 400;&quot;&gt;Private Endpoint&lt;br&gt;Subnet&lt;br&gt;Storage&lt;/span&gt;&lt;/div&gt;" style="swimlane;whiteSpace=wrap;html=1;startSize=48;fillColor=#dae8fc;strokeColor=#6c8ebf;align=center;" vertex="1" parent="aUUkp6z2Ffg6O78OrMZu-24">
          <mxGeometry x="518.75" y="50" width="112.5" height="250" as="geometry" />
        </mxCell>
        <mxCell id="-4cA7_axbYcHQA_eD2gU-39" value="Blob Storage&lt;br&gt;Private Endpoint" style="image;aspect=fixed;html=1;points=[];align=center;fontSize=12;image=img/lib/azure2/other/Private_Endpoints.svg;" vertex="1" parent="-4cA7_axbYcHQA_eD2gU-38">
          <mxGeometry x="32.25" y="160.00000000000003" width="48" height="45.66" as="geometry" />
        </mxCell>
        <mxCell id="-4cA7_axbYcHQA_eD2gU-50" value="Network Security&lt;br&gt;Group" style="image;aspect=fixed;html=1;points=[];align=center;fontSize=12;image=img/lib/azure2/networking/Network_Security_Groups.svg;" vertex="1" parent="-4cA7_axbYcHQA_eD2gU-38">
          <mxGeometry x="37.710000000000036" y="70" width="37.08" height="45" as="geometry" />
        </mxCell>
        <mxCell id="-4cA7_axbYcHQA_eD2gU-33" value="Azure Private DNS Zone for Private Link" style="image;sketch=0;aspect=fixed;html=1;points=[];align=center;fontSize=12;image=img/lib/mscae/DNS_Private_Zones.svg;whiteSpace=wrap;" vertex="1" parent="NoLDuvIoNGPkwHfxKqSU-4">
          <mxGeometry x="100" y="810" width="50" height="50" as="geometry" />
        </mxCell>
        <mxCell id="-4cA7_axbYcHQA_eD2gU-110" style="edgeStyle=orthogonalEdgeStyle;rounded=0;orthogonalLoop=1;jettySize=auto;html=1;exitX=0;exitY=1;exitDx=0;exitDy=0;" edge="1" parent="NoLDuvIoNGPkwHfxKqSU-4" source="aUUkp6z2Ffg6O78OrMZu-22">
          <mxGeometry relative="1" as="geometry">
            <mxPoint x="600" y="340" as="targetPoint" />
          </mxGeometry>
        </mxCell>
        <mxCell id="aUUkp6z2Ffg6O78OrMZu-22" value="Application Layer" style="swimlane;horizontal=0;whiteSpace=wrap;html=1;fillColor=#f8cecc;strokeColor=#b85450;" parent="NoLDuvIoNGPkwHfxKqSU-4" vertex="1">
          <mxGeometry x="610" y="60" width="550" height="280" as="geometry" />
        </mxCell>
        <mxCell id="-4cA7_axbYcHQA_eD2gU-54" value="&lt;div style=&quot;&quot;&gt;&lt;span style=&quot;font-weight: 400;&quot;&gt;App Service Environment Spoke&lt;br&gt;Virtual Network&lt;/span&gt;&lt;/div&gt;" style="swimlane;whiteSpace=wrap;html=1;startSize=30;fillColor=#dae8fc;strokeColor=#6c8ebf;align=center;" vertex="1" parent="aUUkp6z2Ffg6O78OrMZu-22">
          <mxGeometry x="30" y="10" width="510" height="260" as="geometry" />
        </mxCell>
        <mxCell id="-4cA7_axbYcHQA_eD2gU-24" value="&lt;div style=&quot;&quot;&gt;&lt;span style=&quot;font-weight: 400;&quot;&gt;App Service Environment&lt;br&gt;Subnet&lt;/span&gt;&lt;/div&gt;" style="swimlane;whiteSpace=wrap;html=1;startSize=30;fillColor=#dae8fc;strokeColor=#6c8ebf;align=center;" vertex="1" parent="-4cA7_axbYcHQA_eD2gU-54">
          <mxGeometry x="22.5" y="50" width="465" height="200" as="geometry" />
        </mxCell>
        <mxCell id="-4cA7_axbYcHQA_eD2gU-51" value="App Service&lt;br&gt;Environment" style="image;aspect=fixed;html=1;points=[];align=center;fontSize=12;image=img/lib/azure2/app_services/App_Service_Environments.svg;" vertex="1" parent="-4cA7_axbYcHQA_eD2gU-24">
          <mxGeometry x="357.5" y="70" width="60" height="60" as="geometry" />
        </mxCell>
        <mxCell id="-4cA7_axbYcHQA_eD2gU-2" value="API&lt;br&gt;AppService" style="image;aspect=fixed;html=1;points=[];align=center;fontSize=12;image=img/lib/azure2/app_services/App_Services.svg;labelPosition=center;verticalLabelPosition=bottom;verticalAlign=top;" vertex="1" parent="-4cA7_axbYcHQA_eD2gU-24">
          <mxGeometry x="202.5" y="70" width="60" height="60" as="geometry" />
        </mxCell>
        <mxCell id="-4cA7_axbYcHQA_eD2gU-85" style="edgeStyle=orthogonalEdgeStyle;rounded=0;orthogonalLoop=1;jettySize=auto;html=1;strokeWidth=2;curved=1;startArrow=classic;startFill=1;dashed=1;exitX=-0.02;exitY=0.521;exitDx=0;exitDy=0;exitPerimeter=0;strokeColor=#CC6600;" edge="1" parent="-4cA7_axbYcHQA_eD2gU-24" source="-4cA7_axbYcHQA_eD2gU-2">
          <mxGeometry relative="1" as="geometry">
            <mxPoint x="137.47000000000003" y="110" as="sourcePoint" />
            <mxPoint x="-102.5" y="483" as="targetPoint" />
            <Array as="points">
              <mxPoint x="137" y="101" />
              <mxPoint x="137" y="260" />
              <mxPoint x="-168" y="260" />
              <mxPoint x="-168" y="482" />
              <mxPoint x="-102" y="482" />
            </Array>
          </mxGeometry>
        </mxCell>
        <mxCell id="-4cA7_axbYcHQA_eD2gU-92" value="SQL Traffic" style="edgeLabel;html=1;align=center;verticalAlign=middle;resizable=0;points=[];" vertex="1" connectable="0" parent="-4cA7_axbYcHQA_eD2gU-85">
          <mxGeometry x="0.0745" y="6" relative="1" as="geometry">
            <mxPoint as="offset" />
          </mxGeometry>
        </mxCell>
        <mxCell id="aUUkp6z2Ffg6O78OrMZu-19" value="Data Layer" style="swimlane;horizontal=0;whiteSpace=wrap;html=1;fillColor=#e1d5e7;strokeColor=#9673a6;" parent="NoLDuvIoNGPkwHfxKqSU-4" vertex="1">
          <mxGeometry x="489" y="840" width="671" height="230" as="geometry" />
        </mxCell>
        <mxCell id="-4cA7_axbYcHQA_eD2gU-22" value="Blob Storage" style="image;sketch=0;aspect=fixed;html=1;points=[];align=center;fontSize=12;image=img/lib/mscae/BlobBlock.svg;" vertex="1" parent="aUUkp6z2Ffg6O78OrMZu-19">
          <mxGeometry x="551" y="86.5" width="50" height="42" as="geometry" />
        </mxCell>
        <mxCell id="-4cA7_axbYcHQA_eD2gU-30" value="" style="group" vertex="1" connectable="0" parent="aUUkp6z2Ffg6O78OrMZu-19">
          <mxGeometry x="105" y="20" width="65" height="165" as="geometry" />
        </mxCell>
        <mxCell id="aUUkp6z2Ffg6O78OrMZu-3" value="Azure SQL Database" style="image;aspect=fixed;html=1;points=[];align=center;fontSize=12;image=img/lib/azure2/databases/SQL_Database.svg;" parent="-4cA7_axbYcHQA_eD2gU-30" vertex="1">
          <mxGeometry width="48" height="64" as="geometry" />
        </mxCell>
        <mxCell id="aUUkp6z2Ffg6O78OrMZu-4" value="Azure SQL Server" style="image;aspect=fixed;html=1;points=[];align=center;fontSize=12;image=img/lib/azure2/databases/SQL_Server.svg;" parent="-4cA7_axbYcHQA_eD2gU-30" vertex="1">
          <mxGeometry y="100" width="64" height="64" as="geometry" />
        </mxCell>
        <mxCell id="aUUkp6z2Ffg6O78OrMZu-5" value="Redis Cache" style="image;aspect=fixed;html=1;points=[];align=center;fontSize=12;image=img/lib/azure2/databases/Cache_Redis.svg;" parent="aUUkp6z2Ffg6O78OrMZu-19" vertex="1">
          <mxGeometry x="325" y="76.5" width="64" height="52" as="geometry" />
        </mxCell>
        <mxCell id="-4cA7_axbYcHQA_eD2gU-67" value="Private Link&lt;br&gt;Service" style="edgeStyle=orthogonalEdgeStyle;rounded=0;orthogonalLoop=1;jettySize=auto;html=1;strokeColor=#66B2FF;strokeWidth=2;shape=link;entryX=0.535;entryY=-0.052;entryDx=0;entryDy=0;entryPerimeter=0;" edge="1" parent="NoLDuvIoNGPkwHfxKqSU-4" target="aUUkp6z2Ffg6O78OrMZu-3">
          <mxGeometry x="0.0056" relative="1" as="geometry">
            <mxPoint x="620" y="710" as="sourcePoint" />
            <mxPoint x="620" y="850" as="targetPoint" />
            <mxPoint as="offset" />
          </mxGeometry>
        </mxCell>
        <mxCell id="-4cA7_axbYcHQA_eD2gU-78" style="edgeStyle=orthogonalEdgeStyle;rounded=0;orthogonalLoop=1;jettySize=auto;html=1;strokeColor=#66B2FF;strokeWidth=2;shape=link;" edge="1" parent="NoLDuvIoNGPkwHfxKqSU-4" target="aUUkp6z2Ffg6O78OrMZu-5">
          <mxGeometry relative="1" as="geometry">
            <mxPoint x="846" y="710" as="sourcePoint" />
            <mxPoint x="824.58" y="868" as="targetPoint" />
          </mxGeometry>
        </mxCell>
        <mxCell id="-4cA7_axbYcHQA_eD2gU-80" value="Private Link&lt;br&gt;Service" style="edgeLabel;html=1;align=center;verticalAlign=middle;resizable=0;points=[];" vertex="1" connectable="0" parent="-4cA7_axbYcHQA_eD2gU-78">
          <mxGeometry x="-0.3012" relative="1" as="geometry">
            <mxPoint y="8" as="offset" />
          </mxGeometry>
        </mxCell>
        <mxCell id="-4cA7_axbYcHQA_eD2gU-79" style="edgeStyle=orthogonalEdgeStyle;rounded=0;orthogonalLoop=1;jettySize=auto;html=1;strokeColor=#66B2FF;strokeWidth=2;shape=link;" edge="1" parent="NoLDuvIoNGPkwHfxKqSU-4">
          <mxGeometry relative="1" as="geometry">
            <mxPoint x="1065" y="710" as="sourcePoint" />
            <mxPoint x="1064.58" y="927" as="targetPoint" />
          </mxGeometry>
        </mxCell>
        <mxCell id="-4cA7_axbYcHQA_eD2gU-81" value="Private Link&lt;br&gt;Service" style="edgeLabel;html=1;align=center;verticalAlign=middle;resizable=0;points=[];" vertex="1" connectable="0" parent="-4cA7_axbYcHQA_eD2gU-79">
          <mxGeometry x="-0.2717" y="1" relative="1" as="geometry">
            <mxPoint as="offset" />
          </mxGeometry>
        </mxCell>
        <mxCell id="-4cA7_axbYcHQA_eD2gU-89" style="edgeStyle=orthogonalEdgeStyle;rounded=0;orthogonalLoop=1;jettySize=auto;html=1;entryX=0;entryY=0.5;entryDx=0;entryDy=0;strokeWidth=2;curved=1;startArrow=classic;startFill=1;dashed=1;strokeColor=#00CC66;" edge="1" parent="NoLDuvIoNGPkwHfxKqSU-4" target="-4cA7_axbYcHQA_eD2gU-73">
          <mxGeometry relative="1" as="geometry">
            <mxPoint x="890" y="290" as="sourcePoint" />
            <Array as="points">
              <mxPoint x="890" y="379" />
              <mxPoint x="720" y="379" />
              <mxPoint x="720" y="592" />
              <mxPoint x="774" y="592" />
              <mxPoint x="774" y="595" />
            </Array>
          </mxGeometry>
        </mxCell>
        <mxCell id="-4cA7_axbYcHQA_eD2gU-93" value="Redis Traffic" style="edgeLabel;html=1;align=center;verticalAlign=middle;resizable=0;points=[];" vertex="1" connectable="0" parent="-4cA7_axbYcHQA_eD2gU-89">
          <mxGeometry x="-0.242" y="6" relative="1" as="geometry">
            <mxPoint as="offset" />
          </mxGeometry>
        </mxCell>
        <mxCell id="-4cA7_axbYcHQA_eD2gU-48" value="Network Security&lt;br&gt;Group" style="image;aspect=fixed;html=1;points=[];align=center;fontSize=12;image=img/lib/azure2/networking/Network_Security_Groups.svg;" vertex="1" parent="NoLDuvIoNGPkwHfxKqSU-4">
          <mxGeometry x="730" y="197.5" width="37.08" height="45" as="geometry" />
        </mxCell>
        <mxCell id="aUUkp6z2Ffg6O78OrMZu-23" value="Presentation Layer" style="swimlane;horizontal=0;whiteSpace=wrap;html=1;fillColor=#d5e8d4;strokeColor=#82b366;" parent="NoLDuvIoNGPkwHfxKqSU-4" vertex="1">
          <mxGeometry x="20" y="50" width="360" height="290" as="geometry" />
        </mxCell>
        <mxCell id="-4cA7_axbYcHQA_eD2gU-3" value="App Service Plan" style="image;aspect=fixed;html=1;points=[];align=center;fontSize=12;image=img/lib/azure2/app_services/App_Service_Plans.svg;" vertex="1" parent="aUUkp6z2Ffg6O78OrMZu-23">
          <mxGeometry x="60" y="22" width="60" height="60" as="geometry" />
        </mxCell>
        <mxCell id="-4cA7_axbYcHQA_eD2gU-103" value="&lt;div style=&quot;&quot;&gt;&lt;span style=&quot;font-weight: 400;&quot;&gt;Integration&lt;br&gt;Virtual Network&lt;/span&gt;&lt;/div&gt;" style="swimlane;whiteSpace=wrap;html=1;startSize=37;fillColor=#dae8fc;strokeColor=#6c8ebf;align=center;" vertex="1" parent="aUUkp6z2Ffg6O78OrMZu-23">
          <mxGeometry x="160" y="10.000000000000057" width="170" height="260" as="geometry" />
        </mxCell>
        <mxCell id="-4cA7_axbYcHQA_eD2gU-104" value="&lt;div style=&quot;&quot;&gt;&lt;span style=&quot;font-weight: 400;&quot;&gt;AppService&lt;br&gt;Integration&lt;br&gt;Subnet&lt;/span&gt;&lt;/div&gt;" style="swimlane;whiteSpace=wrap;html=1;startSize=50;fillColor=#dae8fc;strokeColor=#6c8ebf;align=center;" vertex="1" parent="-4cA7_axbYcHQA_eD2gU-103">
          <mxGeometry x="21.25" y="50" width="127.5" height="200" as="geometry" />
        </mxCell>
        <mxCell id="-4cA7_axbYcHQA_eD2gU-105" value="Network Security&lt;br&gt;Group" style="image;aspect=fixed;html=1;points=[];align=center;fontSize=12;image=img/lib/azure2/networking/Network_Security_Groups.svg;" vertex="1" parent="-4cA7_axbYcHQA_eD2gU-104">
          <mxGeometry x="47.5" y="77.5" width="37.08" height="45" as="geometry" />
        </mxCell>
        <mxCell id="-4cA7_axbYcHQA_eD2gU-96" value="&lt;div style=&quot;&quot;&gt;&lt;span style=&quot;font-weight: 400;&quot;&gt;Hub&lt;br&gt;Virtual Network&lt;/span&gt;&lt;/div&gt;" style="swimlane;whiteSpace=wrap;html=1;startSize=37;fillColor=#dae8fc;strokeColor=#6c8ebf;align=center;" vertex="1" parent="NoLDuvIoNGPkwHfxKqSU-4">
          <mxGeometry x="170" y="470" width="170" height="270" as="geometry" />
        </mxCell>
        <mxCell id="-4cA7_axbYcHQA_eD2gU-97" value="&lt;div style=&quot;&quot;&gt;&lt;span style=&quot;font-weight: 400;&quot;&gt;(Unused)&lt;br&gt;Subnet&lt;/span&gt;&lt;/div&gt;" style="swimlane;whiteSpace=wrap;html=1;startSize=40;fillColor=#dae8fc;strokeColor=#6c8ebf;align=center;" vertex="1" parent="-4cA7_axbYcHQA_eD2gU-96">
          <mxGeometry x="21.25" y="50" width="127.5" height="200" as="geometry" />
        </mxCell>
        <mxCell id="-4cA7_axbYcHQA_eD2gU-102" value="Network Security&lt;br&gt;Group" style="image;aspect=fixed;html=1;points=[];align=center;fontSize=12;image=img/lib/azure2/networking/Network_Security_Groups.svg;" vertex="1" parent="-4cA7_axbYcHQA_eD2gU-97">
          <mxGeometry x="47.5" y="77.5" width="37.08" height="45" as="geometry" />
        </mxCell>
        <mxCell id="-4cA7_axbYcHQA_eD2gU-4" value="Application Insights&lt;br&gt;API Telemetry" style="image;html=1;points=[];align=left;fontSize=12;image=img/lib/azure2/devops/Application_Insights.svg;spacingRight=0;aspect=fixed;labelPosition=right;verticalLabelPosition=middle;verticalAlign=middle;" vertex="1" parent="NoLDuvIoNGPkwHfxKqSU-4">
          <mxGeometry x="1194" y="160" width="31.43" height="45" as="geometry" />
        </mxCell>
        <mxCell id="-4cA7_axbYcHQA_eD2gU-12" style="edgeStyle=orthogonalEdgeStyle;rounded=0;orthogonalLoop=1;jettySize=auto;html=1;exitX=0.508;exitY=-0.028;exitDx=0;exitDy=0;exitPerimeter=0;" edge="1" parent="NoLDuvIoNGPkwHfxKqSU-4" source="-4cA7_axbYcHQA_eD2gU-2" target="-4cA7_axbYcHQA_eD2gU-4">
          <mxGeometry relative="1" as="geometry">
            <Array as="points">
              <mxPoint x="896" y="170" />
            </Array>
          </mxGeometry>
        </mxCell>
        <mxCell id="-4cA7_axbYcHQA_eD2gU-52" value="" style="group" vertex="1" connectable="0" parent="NoLDuvIoNGPkwHfxKqSU-4">
          <mxGeometry x="10" y="90" width="150" height="305" as="geometry" />
        </mxCell>
        <mxCell id="aUUkp6z2Ffg6O78OrMZu-7" value="&lt;font style=&quot;font-size: 12px;&quot;&gt;&lt;font face=&quot;Helvetica&quot;&gt;Application Insights&lt;br&gt;&lt;/font&gt;Front-end Telemetry&lt;/font&gt;" style="image;aspect=fixed;html=1;points=[];align=center;fontSize=12;image=img/lib/azure2/devops/Application_Insights.svg;labelPosition=center;verticalLabelPosition=bottom;verticalAlign=top;" parent="-4cA7_axbYcHQA_eD2gU-52" vertex="1">
          <mxGeometry x="74.28" y="260" width="31.43" height="45" as="geometry" />
        </mxCell>
        <mxCell id="NoLDuvIoNGPkwHfxKqSU-6" value="Front End&lt;br&gt;AppService" style="image;aspect=fixed;html=1;points=[];align=center;fontSize=12;image=img/lib/azure2/app_services/App_Services.svg;labelPosition=center;verticalLabelPosition=bottom;verticalAlign=top;" parent="-4cA7_axbYcHQA_eD2gU-52" vertex="1">
          <mxGeometry x="70" y="122.5" width="60" height="60" as="geometry" />
        </mxCell>
        <mxCell id="-4cA7_axbYcHQA_eD2gU-11" style="edgeStyle=orthogonalEdgeStyle;rounded=0;orthogonalLoop=1;jettySize=auto;html=1;entryX=-0.03;entryY=0.312;entryDx=0;entryDy=0;entryPerimeter=0;exitX=0.002;exitY=0.539;exitDx=0;exitDy=0;exitPerimeter=0;" edge="1" parent="-4cA7_axbYcHQA_eD2gU-52" source="NoLDuvIoNGPkwHfxKqSU-6" target="aUUkp6z2Ffg6O78OrMZu-7">
          <mxGeometry relative="1" as="geometry" />
        </mxCell>
        <mxCell id="-4cA7_axbYcHQA_eD2gU-106" style="edgeStyle=orthogonalEdgeStyle;rounded=0;orthogonalLoop=1;jettySize=auto;html=1;startArrow=classic;startFill=1;dashed=1;dashPattern=1 1;strokeWidth=3;strokeColor=#00CC00;entryX=0.001;entryY=0.051;entryDx=0;entryDy=0;entryPerimeter=0;exitX=0.606;exitY=-0.019;exitDx=0;exitDy=0;exitPerimeter=0;" edge="1" parent="NoLDuvIoNGPkwHfxKqSU-4" source="-4cA7_axbYcHQA_eD2gU-96" target="-4cA7_axbYcHQA_eD2gU-54">
          <mxGeometry relative="1" as="geometry">
            <mxPoint x="350" y="760" as="sourcePoint" />
            <mxPoint x="380" y="590" as="targetPoint" />
            <Array as="points">
              <mxPoint x="273" y="400" />
              <mxPoint x="470" y="400" />
              <mxPoint x="470" y="83" />
            </Array>
          </mxGeometry>
        </mxCell>
        <mxCell id="-4cA7_axbYcHQA_eD2gU-62" style="edgeStyle=orthogonalEdgeStyle;rounded=0;orthogonalLoop=1;jettySize=auto;html=1;startArrow=classic;startFill=1;dashed=1;dashPattern=1 1;strokeWidth=3;strokeColor=#00CC00;exitX=0.712;exitY=-0.019;exitDx=0;exitDy=0;exitPerimeter=0;" edge="1" parent="NoLDuvIoNGPkwHfxKqSU-4" source="-4cA7_axbYcHQA_eD2gU-96">
          <mxGeometry relative="1" as="geometry">
            <mxPoint x="1424" y="420" as="sourcePoint" />
            <mxPoint x="489" y="430" as="targetPoint" />
            <Array as="points">
              <mxPoint x="291" y="430" />
              <mxPoint x="489" y="430" />
            </Array>
          </mxGeometry>
        </mxCell>
        <mxCell id="-4cA7_axbYcHQA_eD2gU-108" style="edgeStyle=orthogonalEdgeStyle;rounded=0;orthogonalLoop=1;jettySize=auto;html=1;startArrow=classic;startFill=1;dashed=1;dashPattern=1 1;strokeWidth=3;strokeColor=#00CC00;entryX=1.012;entryY=0.088;entryDx=0;entryDy=0;entryPerimeter=0;exitX=0.5;exitY=0;exitDx=0;exitDy=0;" edge="1" parent="NoLDuvIoNGPkwHfxKqSU-4" source="-4cA7_axbYcHQA_eD2gU-96" target="-4cA7_axbYcHQA_eD2gU-103">
          <mxGeometry relative="1" as="geometry">
            <mxPoint x="410" y="502" as="sourcePoint" />
            <mxPoint x="498" y="446" as="targetPoint" />
            <Array as="points">
              <mxPoint x="255" y="370" />
              <mxPoint x="440" y="370" />
              <mxPoint x="440" y="83" />
            </Array>
          </mxGeometry>
        </mxCell>
        <mxCell id="-4cA7_axbYcHQA_eD2gU-109" value="&lt;font style=&quot;font-size: 15px;&quot;&gt;Virtual Network&lt;br&gt;Peering&lt;/font&gt;" style="edgeLabel;html=1;align=center;verticalAlign=middle;resizable=0;points=[];" vertex="1" connectable="0" parent="-4cA7_axbYcHQA_eD2gU-108">
          <mxGeometry x="-0.2649" y="-15" relative="1" as="geometry">
            <mxPoint x="-18" y="10" as="offset" />
          </mxGeometry>
        </mxCell>
      </root>
    </mxGraphModel>
  </diagram>
</mxfile>
